HIERARCHY
ROOT HipCenter
{
    OFFSET 0.0 0.0 -0.0
    CHANNELS 6 Xposition Yposition Zposition Zrotation Xrotation Yrotation
    JOINT Spine
    {
        OFFSET 0.0 11.54593563079834 0.0
        CHANNELS 3 Zrotation Xrotation Yrotation
        JOINT ShoulderCenter
        {
            OFFSET 0.0 32.728885650634766 0.0
            CHANNELS 3 Zrotation Xrotation Yrotation
            JOINT LeftShoulder
            {
                OFFSET 19.0728759765625 0.0 0.0
                CHANNELS 3 Zrotation Xrotation Yrotation
                JOINT LeftElbow
                {
                    OFFSET 28.858617782592773 0.0 0.0
                    CHANNELS 3 Zrotation Xrotation Yrotation
                    JOINT LeftWrist
                    {
                        OFFSET 29.32784652709961 0.0 0.0
                        CHANNELS 3 Zrotation Xrotation Yrotation
                        JOINT LeftHand
                        {
                            OFFSET 3.768887519836426 0.0 0.0
                            CHANNELS 3 Zrotation Xrotation Yrotation
                            End Site
                            {
                                OFFSET 1.5075551271438599 0.0 0.0
                            }
                        }
                    }
                }
            }
            JOINT RightShoulder
            {
                OFFSET -19.0728759765625 0.0 0.0
                CHANNELS 3 Zrotation Xrotation Yrotation
                JOINT RightElbow
                {
                    OFFSET -28.858617782592773 0.0 0.0
                    CHANNELS 3 Zrotation Xrotation Yrotation
                    JOINT RightWrist
                    {
                        OFFSET -29.32784652709961 0.0 0.0
                        CHANNELS 3 Zrotation Xrotation Yrotation
                        JOINT RightHand
                        {
                            OFFSET -3.768887519836426 0.0 0.0
                            CHANNELS 3 Zrotation Xrotation Yrotation
                            End Site
                            {
                                OFFSET -1.5075551271438599 0.0 0.0
                            }
                        }
                    }
                }
            }
            End Site
            {
                OFFSET 0.0 13.091553688049316 0.0
            }
        }
    }
    JOINT LeftHip
    {
        OFFSET 13.480035781860352 0.0 0.0
        CHANNELS 3 Zrotation Xrotation Yrotation
        JOINT LeftKnee
        {
            OFFSET 0.0 -41.1805419921875 0.0
            CHANNELS 3 Zrotation Xrotation Yrotation
            JOINT LeftAnkle
            {
                OFFSET 0.0 -42.329689025878906 0.0
                CHANNELS 3 Zrotation Xrotation Yrotation
                JOINT LeftFoot
                {
                    OFFSET 0.0 -13.485422134399414 0.0
                    CHANNELS 3 Zrotation Xrotation Yrotation
                    End Site
                    {
                        OFFSET 0.0 0.0 5.394169330596924
                    }
                }
            }
        }
    }
    JOINT RightHip
    {
        OFFSET -13.480035781860352 0.0 0.0
        CHANNELS 3 Zrotation Xrotation Yrotation
        JOINT RightKnee
        {
            OFFSET 0.0 -41.1805419921875 0.0
            CHANNELS 3 Zrotation Xrotation Yrotation
            JOINT RightAnkle
            {
                OFFSET 0.0 -42.329689025878906 0.0
                CHANNELS 3 Zrotation Xrotation Yrotation
                JOINT RightFoot
                {
                    OFFSET 0.0 -13.485422134399414 0.0
                    CHANNELS 3 Zrotation Xrotation Yrotation
                    End Site
                    {
                        OFFSET 0.0 0.0 5.394169330596924
                    }
                }
            }
        }
    }
}
MOTION
Frames: 7
Frame Time: 0.03333333333333333
57.20000457763672 1.2000000476837158 243.0 -2.511343991647489 9.941259879322082 -28.235224895526073 14.094473837294935 5.318821257831473 -0.88256398188224 1.314811642506812e-07 -1.1075007659320522e-07 -8.196989992639907 84.80338817604908 2.9017412161026077 -177.59087528821107 5.702851050309992e-07 -1.4443256347975422e-06 43.0725955027361 8.580345032177707e-06 -61.33780221436428 20.696435285162195 -1.5902773407317582e-15 3.1805546814635164e-15 7.951386703658792e-16 -98.18131444822359 0.47917421129428817 176.34440817564519 2.4173180783136125e-06 8.878627095571526e-06 -40.405276372034436 -179.9999931462788 -57.61066082565048 152.03550194499164 -6.3611093629270335e-15 -1.1927080055488188e-15 -6.620859447075238e-32 9.172620321240775 -10.875622743130217 -30.194916664182077 -14.381525127678138 15.83236508076816 -12.681970911309529 100.66491059060236 -16.04524350451861 166.21728598350074 3.1805546814635168e-15 0.0 0.0 1.5926629672663306 -23.706530801725172 12.738614351698011 16.034252133241864 28.773160807482995 23.5149850296752 -93.53054987128587 -10.803351870090927 -167.20361689673993 -8.498044539535333e-15 3.316895406591403e-31 -4.472655020808069e-15
57.5 1.2000000476837158 243.0 -1.0050898739246583 10.435860259609331 -32.56225537332367 9.276076484161951 4.369950367636486 -0.3571726782476836 3.2336334903529753e-07 -1.7835679837443673e-07 -9.237287655670434 89.00516456878627 2.81612094759706 -178.2913823106015 -4.184037960755389e-06 6.55483212238433e-07 42.73568428748409 1.1788398130263793e-07 -50.708132753556825 16.56903958312724 7.951386703658792e-16 -1.1034765745125397e-32 -1.5902773407317584e-15 -94.32682658314293 -0.21723159916389342 177.73344272822465 1.5145146128214696e-06 -1.849873676986995e-06 -41.10823805604243 179.99999279987722 -54.618095251914426 152.8941088612944 6.3611093629270335e-15 0.0 0.0 8.446162652291575 -10.879279798508174 -30.7807303265728 -14.706434266330913 14.940103912977236 -11.342577317864908 101.16068053845667 -13.440498686769718 167.99839315793292 -3.1805546814635168e-15 9.54166404439055e-15 3.1805546814635168e-15 0.4277605513824105 -25.20425142330674 11.81325461298676 21.483164031291285 30.66743205413174 21.425579759519884 -95.2294358353624 -2.527418621162835 -176.634275340045 5.267793691173949e-15 -1.5902773407317584e-15 1.987846675914699e-16
57.5 1.0 243.3000030517578 -1.0050901718732141 9.460863045923878 -37.04291033811553 7.910854525431655 5.497767478747678 -0.16828741341972353 5.801699489799013e-08 -1.5189250854290152e-08 -10.180540013608965 90.72219618793666 1.8360365043179923 -177.81112113597513 1.1113502274483843e-06 -1.6990281777498728e-06 41.95397998459503 2.6395745003754947e-06 -43.67225412803451 17.287545478074186 1.5902773407317582e-15 0.0 0.0 -93.67099533131915 -1.0036621525835614 178.22101938799534 -1.7048858026540498e-06 -1.3825376279968516e-06 -41.16361628053557 -179.99999993191608 -49.92048895922815 153.97020008784565 0.0 7.951386703658792e-16 0.0 7.985436398883555 -8.326603397040763 -31.14610305919081 -14.530243437100083 13.522999548072551 -9.456298171347303 101.19925556624739 -11.715880493521595 168.7294850984504 3.1805546814635168e-15 -8.827812596100317e-32 -3.1805546814635168e-15 -0.7487133966209387 -24.26250093527579 11.48676971334729 27.42308243888441 32.01188860175484 19.989579204917582 -100.1808355125746 1.5638973242400438 178.05946906629694 -1.2175560889977521e-15 4.224246261805816e-33 -3.9756933518293945e-16
57.400001525878906 1.100000023841858 243.8000030517578 -0.5025740765135925 8.972301993958155 -41.90616401537396 5.2119409560146215 5.401942553621371 0.11130750719585145 1.1263050704748706e-08 6.507883920855756e-07 -10.314338166614226 93.24600099751943 2.426998707025862 -177.89774906728582 -3.530113749384334e-06 3.090910735114355e-06 40.85701315056753 -2.1726433320682465e-06 -47.60347610276006 18.559971394435813 -2.3854160110976384e-15 -3.310429723537619e-32 1.5902773407317588e-15 -91.39794182105497 -0.4934100016319203 179.62696760955953 8.419964940930957e-07 -2.951070498083651e-06 -41.154073754562496 -179.9999992947673 -53.43432385339566 151.51123855919016 -6.3611093629270335e-15 -7.951386703658792e-16 -4.4139062980501586e-32 7.392913543858262 -6.573816181703244 -32.70103279897865 -14.722556454149796 12.584999120090991 -8.410804617483969 102.83301410553902 -8.063116538812716 172.30343160413096 -8.827812596100317e-32 3.1805546814635168e-15 3.1805546814635168e-15 -0.8242488352975622 -22.514013294096394 14.450380004076589 30.575876837430254 30.402107327492608 17.279139722472312 -102.12522486654997 3.0794243467721705 176.2012465440624 -1.6151254241806922e-16 0.0 0.0
57.099998474121094 0.5 244.1999969482422 -1.7932050003899494e-07 7.989280926174406 -47.494393080394175 3.1573690977306303 5.3918329546180725 0.18640192744636452 -3.5811945546858e-07 -2.975966384831645e-07 -9.878876358492368 94.68169748720794 4.602746904310176 -178.64498138925762 -1.0835928705640838e-06 9.171803567990825e-08 40.14563778844499 -2.155024038876387e-06 -50.3229431205203 20.431605914516233 -7.951386703658792e-16 0.0 0.0 -89.92820855288664 2.274375278114108 179.83826617029908 3.1223471342212973e-06 3.7127419582886587e-06 -39.855809320402145 -179.9999965305768 -52.29125408487828 152.21470452735048 0.0 0.0 1.3914926731402886e-15 7.274239614052407 -6.42793874023953 -32.350078833197344 -18.042906072429204 14.092395529865986 -8.70348384279784 104.27669987625214 -2.8242328355760007 177.21408546400124 0.0 0.0 0.0 0.5707237951898045 -19.98900837317636 17.033571396526433 29.02590252411645 28.54052187169561 15.688539574925429 -100.44323076609048 4.289555242715007 174.30671122028062 9.094398542309744e-15 0.0 0.0
56.69999694824219 -0.0 244.60000610351562 1.7788565447387327e-07 7.989207250729563 -53.685347487817054 3.4102069649661915 5.070094185837026 0.2016608875545348 8.870042680593822e-07 -1.474580927057017e-06 -9.50627900140949 94.69776061779451 8.454834930805172 -179.4356485783113 2.079044862386484e-06 2.9524604936937567e-06 38.88630117296747 5.554422206056236e-06 -53.219104585996234 21.67671634785707 -7.951386703658792e-16 3.1805546814635168e-15 1.5902773407317584e-15 -90.12765508347938 4.19492582307396 179.5335599263005 3.973280193504237e-06 2.461507051523629e-06 -37.74234696197356 -179.99999750144212 -49.19132255445038 150.21426804494254 0.0 0.0 -5.963540027744094e-16 8.192579824387114 -6.678464608990175 -32.55160097046301 -22.3382580355775 15.64691794680414 -8.206639612985606 108.29324898465123 1.9423997549347538 -178.078812319574 -6.3611093629270335e-15 3.1805546814635164e-15 6.3611093629270335e-15 3.092254450451942 -17.336532514031177 20.807031232602643 25.730530381018635 26.167721736254023 14.644654700060354 -94.45867030799505 2.0904091296374134 176.6181904496303 -6.957463365701443e-15 1.5902773407317582e-15 3.1805546814635168e-15
56.599998474121094 -0.20000000298023224 244.89999389648438 1.4943108242013905 6.9386909690332175 -60.84723162190341 2.6176637731707015 4.842145453125096 -0.2205536466582885 -1.1977900030785672e-06 7.356555810359785e-07 -8.015199855005239 94.59542084802594 11.001952757982718 -179.94694535321656 -2.585707506442538e-06 8.92362163488432e-07 37.47629384158823 8.36542362541594e-07 -58.27369240364865 23.634729539159697 7.951386703658792e-16 0.0 0.0 -90.05904493174886 7.437737389037618 178.01636940146676 1.4047512868453005e-06 1.52780041438475e-06 -35.48651310983682 179.99999779234523 -53.61603426446485 148.3249372209666 -6.3611093629270335e-15 -3.1805546814635168e-15 -1.5902773407317584e-15 9.262465468986331 -9.420076907295753 -34.49777486678607 -30.607937346149576 16.678966163031326 -8.194903568585113 110.92209248173188 9.408345325228487 -171.14105041942003 -6.361109362927032e-15 -1.7655625192200634e-31 3.180554681463516e-15 3.550963102694897 -16.292279116791597 21.84505039825946 21.93495672715157 25.075093232579544 12.778162276187954 -95.37215628853545 -8.02896980921359 -166.74838749777533 -3.776908684237926e-15 3.1805546814635168e-15 1.5902773407317584e-15
